<mxfile host="app.diagrams.net" modified="2020-11-23T23:46:13.946Z" agent="5.0 (Windows)" etag="YUw9KE8m0N-tIr0xGL67" version="13.10.1" type="github">
  <diagram id="puzu8j-UbEggwc6IzyhM" name="Pagina-1">
    <mxGraphModel dx="1422" dy="791" grid="1" gridSize="10" guides="1" tooltips="1" connect="1" arrows="1" fold="1" page="1" pageScale="1" pageWidth="827" pageHeight="1169" math="0" shadow="0">
      <root>
        <mxCell id="0" />
        <mxCell id="1" parent="0" />
        <mxCell id="nXQfmBkwJb_CwsUF7-xj-12" value="&lt;font color=&quot;#ffffff&quot;&gt;&amp;lt;&amp;lt;Control&amp;gt;&amp;gt;&lt;br&gt;&lt;b&gt;RegistrazioneAccountControl&lt;/b&gt;&lt;br&gt;&lt;/font&gt;" style="html=1;fillColor=#000066;" parent="1" vertex="1">
          <mxGeometry x="300" y="300" width="220" height="50" as="geometry" />
        </mxCell>
        <mxCell id="nXQfmBkwJb_CwsUF7-xj-13" value="&lt;font color=&quot;#ffffff&quot;&gt;&amp;lt;&amp;lt;Boundary&amp;gt;&amp;gt;&lt;br&gt;&lt;b&gt;FormRegistrazioneAccount&lt;/b&gt;&lt;br&gt;&lt;/font&gt;" style="html=1;fillColor=#000066;" parent="1" vertex="1">
          <mxGeometry x="110" y="150" width="220" height="50" as="geometry" />
        </mxCell>
        <mxCell id="nXQfmBkwJb_CwsUF7-xj-14" value="&lt;font color=&quot;#ffffff&quot;&gt;&amp;lt;&amp;lt;Boundary&amp;gt;&amp;gt;&lt;br&gt;&lt;b&gt;RegistrazioneAccountView&lt;/b&gt;&lt;br&gt;&lt;/font&gt;" style="html=1;fillColor=#000066;" parent="1" vertex="1">
          <mxGeometry x="480" y="150" width="220" height="50" as="geometry" />
        </mxCell>
        <mxCell id="nXQfmBkwJb_CwsUF7-xj-15" value="&lt;font color=&quot;#ffffff&quot;&gt;&amp;lt;&amp;lt;Entity&amp;gt;&amp;gt;&lt;br&gt;&lt;b&gt;Utente&lt;/b&gt;&lt;br&gt;&lt;/font&gt;" style="html=1;fillColor=#000066;" parent="1" vertex="1">
          <mxGeometry x="300" y="470" width="220" height="50" as="geometry" />
        </mxCell>
        <mxCell id="nXQfmBkwJb_CwsUF7-xj-16" value="" style="endArrow=none;html=1;entryX=0.5;entryY=1;entryDx=0;entryDy=0;exitX=0.5;exitY=0;exitDx=0;exitDy=0;" parent="1" source="nXQfmBkwJb_CwsUF7-xj-15" target="nXQfmBkwJb_CwsUF7-xj-12" edge="1">
          <mxGeometry width="50" height="50" relative="1" as="geometry">
            <mxPoint x="390" y="360" as="sourcePoint" />
            <mxPoint x="440" y="310" as="targetPoint" />
          </mxGeometry>
        </mxCell>
        <mxCell id="nXQfmBkwJb_CwsUF7-xj-17" value="" style="endArrow=none;html=1;exitX=0.75;exitY=0;exitDx=0;exitDy=0;entryX=0.5;entryY=1;entryDx=0;entryDy=0;" parent="1" source="nXQfmBkwJb_CwsUF7-xj-12" target="nXQfmBkwJb_CwsUF7-xj-14" edge="1">
          <mxGeometry width="50" height="50" relative="1" as="geometry">
            <mxPoint x="390" y="360" as="sourcePoint" />
            <mxPoint x="440" y="310" as="targetPoint" />
          </mxGeometry>
        </mxCell>
        <mxCell id="nXQfmBkwJb_CwsUF7-xj-18" value="" style="endArrow=none;html=1;entryX=0.5;entryY=1;entryDx=0;entryDy=0;exitX=0.25;exitY=0;exitDx=0;exitDy=0;" parent="1" source="nXQfmBkwJb_CwsUF7-xj-12" target="nXQfmBkwJb_CwsUF7-xj-13" edge="1">
          <mxGeometry width="50" height="50" relative="1" as="geometry">
            <mxPoint x="390" y="360" as="sourcePoint" />
            <mxPoint x="440" y="310" as="targetPoint" />
          </mxGeometry>
        </mxCell>
        <mxCell id="wzNtdaxbpz2k9nQIFGkT-1" value="" style="endArrow=none;html=1;entryX=0.5;entryY=1;entryDx=0;entryDy=0;exitX=0.5;exitY=0;exitDx=0;exitDy=0;" edge="1" parent="1" source="wzNtdaxbpz2k9nQIFGkT-2" target="nXQfmBkwJb_CwsUF7-xj-12">
          <mxGeometry width="50" height="50" relative="1" as="geometry">
            <mxPoint x="660" y="470" as="sourcePoint" />
            <mxPoint x="440" y="380" as="targetPoint" />
          </mxGeometry>
        </mxCell>
        <mxCell id="wzNtdaxbpz2k9nQIFGkT-2" value="&lt;font color=&quot;#ffffff&quot;&gt;&amp;lt;&amp;lt;Entity&amp;gt;&amp;gt;&lt;br&gt;&lt;b&gt;AccountRepository&lt;/b&gt;&lt;br&gt;&lt;/font&gt;" style="html=1;fillColor=#000066;" vertex="1" parent="1">
          <mxGeometry x="630" y="470" width="220" height="50" as="geometry" />
        </mxCell>
      </root>
    </mxGraphModel>
  </diagram>
</mxfile>
